<svg width="38" height="22" viewBox="0 0 38 22" fill="none" xmlns="http://www.w3.org/2000/svg">
<path d="M20.9525 20.735L36.49 5.17001C36.7478 4.91436 36.9524 4.61021 37.092 4.2751C37.2316 3.93998 37.3035 3.58054 37.3035 3.21751C37.3035 2.85448 37.2316 2.49504 37.092 2.15993C36.9524 1.82481 36.7478 1.52066 36.49 1.26501C35.9748 0.752821 35.2778 0.465332 34.5513 0.465332C33.8248 0.465332 33.1278 0.752821 32.6125 1.26501L18.8625 14.8775L5.25002 1.26501C4.73478 0.75282 4.03778 0.465331 3.31127 0.465331C2.58476 0.465331 1.88777 0.75282 1.37252 1.26501C1.11268 1.5197 0.90596 1.82342 0.764347 2.15858C0.62273 2.49374 0.549034 2.85366 0.547523 3.21751C0.549034 3.58135 0.62273 3.94128 0.764347 4.27644C0.90596 4.6116 1.11268 4.91532 1.37252 5.17001L16.91 20.735C17.1675 21.0141 17.4801 21.2369 17.828 21.3893C18.1758 21.5417 18.5515 21.6203 18.9313 21.6203C19.3111 21.6203 19.6867 21.5417 20.0346 21.3893C20.3825 21.2369 20.695 21.0141 20.9525 20.735Z" fill="black"/>
</svg>
