<?xml version="1.0" encoding="utf-8"?><!DOCTYPE svg PUBLIC "-//W3C//DTD SVG 1.1//EN" "http://www.w3.org/Graphics/SVG/1.1/DTD/svg11.dtd"><svg xmlns="http://www.w3.org/2000/svg" xmlns:xlink="http://www.w3.org/1999/xlink"><symbol viewBox="0 0 38 22" id="arrow" xmlns="http://www.w3.org/2000/svg"><path d="M20.953 20.735L36.49 5.17a2.75 2.75 0 000-3.905 2.75 2.75 0 00-3.878 0l-13.75 13.612L5.25 1.265a2.75 2.75 0 00-3.877 0 2.75 2.75 0 00-.825 1.953 2.75 2.75 0 00.825 1.952L16.91 20.735a2.75 2.75 0 004.043 0z"/></symbol><symbol viewBox="0 0 490 490" id="arrow-up" xmlns="http://www.w3.org/2000/svg"><path d="M437.2 178.7c12.8 12.8 12.8 33.4 0 46.2-6.4 6.4-14.7 9.6-23.1 9.6s-16.7-3.2-23.1-9.6L277.7 111.5v345.8c0 18-14.6 32.7-32.7 32.7s-32.7-14.6-32.7-32.7V111.5L99 224.9c-12.8 12.8-33.4 12.8-46.2 0s-12.8-33.4 0-46.2L221.9 9.6C228 3.4 236.3 0 245 0c8.7 0 17 3.4 23.1 9.6l169.1 169.1z"/></symbol><symbol viewBox="0 0 95.481 95.481" id="ok" xmlns="http://www.w3.org/2000/svg"><path d="M43.041 67.254c-7.402-.772-14.076-2.595-19.79-7.064-.709-.556-1.441-1.092-2.088-1.713-2.501-2.402-2.753-5.153-.774-7.988 1.693-2.426 4.535-3.075 7.489-1.682.572.27 1.117.607 1.639.969 10.649 7.317 25.278 7.519 35.967.329 1.059-.812 2.191-1.474 3.503-1.812 2.551-.655 4.93.282 6.299 2.514 1.564 2.549 1.544 5.037-.383 7.016-2.956 3.034-6.511 5.229-10.461 6.761-3.735 1.448-7.826 2.177-11.875 2.661.611.665.899.992 1.281 1.376 5.498 5.524 11.02 11.025 16.5 16.566 1.867 1.888 2.257 4.229 1.229 6.425-1.124 2.4-3.64 3.979-6.107 3.81-1.563-.108-2.782-.886-3.865-1.977-4.149-4.175-8.376-8.273-12.441-12.527-1.183-1.237-1.752-1.003-2.796.071-4.174 4.297-8.416 8.528-12.683 12.735-1.916 1.889-4.196 2.229-6.418 1.15-2.362-1.145-3.865-3.556-3.749-5.979.08-1.639.886-2.891 2.011-4.014 5.441-5.433 10.867-10.88 16.295-16.322.359-.362.694-.746 1.217-1.305z"/><path d="M47.55 48.329c-13.205-.045-24.033-10.992-23.956-24.218C23.67 10.739 34.505-.037 47.84 0c13.362.036 24.087 10.967 24.02 24.478-.068 13.199-10.971 23.897-24.31 23.851zm12.001-24.186c-.023-6.567-5.253-11.795-11.807-11.801-6.609-.007-11.886 5.316-11.835 11.943.049 6.542 5.324 11.733 11.896 11.709 6.552-.023 11.768-5.285 11.746-11.851z"/></symbol><symbol viewBox="0 0 24 24" id="vk" xmlns="http://www.w3.org/2000/svg"><path d="M23.456 5.784a8.605 8.605 0 01-1.09 2.259l.019-.03q-.672 1.12-1.605 2.588-.8 1.159-.847 1.2a1.28 1.28 0 00-.267.618l-.001.007a.897.897 0 00.268.535l.4.446q3.21 3.299 3.611 4.548a.89.89 0 01-.112.829l.002-.003a.965.965 0 01-.784.289h.004H20.418c-.337 0-.647-.118-.89-.314l.003.002a6.928 6.928 0 01-.951-.948l-.009-.012q-.691-.781-1.226-1.315-1.782-1.694-2.63-1.694a.788.788 0 00-.516.135l.003-.002a.767.767 0 00-.16.584v-.004a12.532 12.532 0 00-.038 1.403v-.017 1.159a.78.78 0 01-.266.757l-.001.001a3.179 3.179 0 01-1.617.267l.013.001a8.323 8.323 0 01-4.275-1.268l.035.02A11.931 11.931 0 014.176 14.3l-.027-.042a26.36 26.36 0 01-2.471-3.992l-.07-.154A24.657 24.657 0 01.375 7.31l-.06-.185a6.646 6.646 0 01-.31-1.535l-.002-.025q0-.758.892-.758h2.63a1.058 1.058 0 01.739.225l-.002-.002c.2.219.348.488.421.788l.003.012a25.422 25.422 0 001.587 3.615l-.067-.137a14.56 14.56 0 001.623 2.576l-.023-.031q.8.982 1.248.982l.032.001a.4.4 0 00.347-.2l.001-.002a1.783 1.783 0 00.111-.787v.006-3.879a3.211 3.211 0 00-.32-1.267l.008.019a2.956 2.956 0 00-.45-.695l.003.004a1.099 1.099 0 01-.311-.619l-.001-.006c0-.17.078-.323.2-.423l.001-.001a.678.678 0 01.46-.178h4.154a.634.634 0 01.559.222l.001.001a1.36 1.36 0 01.159.763v-.005 5.173a.993.993 0 00.136.584l-.002-.004a.401.401 0 00.333.178h.001a.946.946 0 00.471-.162l-.003.002c.272-.187.506-.4.709-.641l.004-.005a15.606 15.606 0 001.655-2.25l.039-.07c.344-.57.716-1.272 1.053-1.993l.062-.147.446-.892a1.122 1.122 0 011.117-.759h-.003 2.631q1.066 0 .8.981z"/></symbol><symbol viewBox="0 0 49 49" id="ytube" xmlns="http://www.w3.org/2000/svg"><path d="M39.256 6.5H9.744C4.371 6.5 0 10.885 0 16.274v16.451c0 5.39 4.371 9.774 9.744 9.774h29.512c5.373 0 9.744-4.385 9.744-9.774V16.274c0-5.389-4.371-9.774-9.744-9.774zM47 32.726c0 4.287-3.474 7.774-7.744 7.774H9.744C5.474 40.5 2 37.012 2 32.726V16.274C2 11.988 5.474 8.5 9.744 8.5h29.512c4.27 0 7.744 3.488 7.744 7.774v16.452z"/><path d="M33.36 24.138l-13.855-8.115a1.002 1.002 0 00-1.505.863v16.229a1.002 1.002 0 001 1 1 1 0 00.505-.137l13.855-8.113a1 1 0 000-1.727zM20 31.37V18.63l10.876 6.371L20 31.37z"/></symbol></svg>